<?xml version="1.0" encoding="UTF-8"?>
<svg version="1.1" xmlns="http://www.w3.org/2000/svg" width="600" height="600">
<path d="M0 0 C0.66 0 1.32 0 2 0 C4.2888332 4.2891029 5.86934796 8.44833798 7.1875 13.125 C7.53167969 14.32382812 7.87585938 15.52265625 8.23046875 16.7578125 C9 20 9 20 9 24 C9.66 24 10.32 24 11 24 C11.84003448 26.7481128 12.67222151 29.49819581 13.5 32.25 C13.73847656 33.02730469 13.97695313 33.80460937 14.22265625 34.60546875 C14.44824219 35.35957031 14.67382812 36.11367188 14.90625 36.890625 C15.11572266 37.58188477 15.32519531 38.27314453 15.54101562 38.98535156 C16 41 16 41 16 45 C16.66 45 17.32 45 18 45 C18.16604736 45.59425781 18.33209473 46.18851563 18.50317383 46.80078125 C19.26934806 49.53487783 20.04088742 52.26743347 20.8125 55 C21.07353516 55.93457031 21.33457031 56.86914062 21.60351562 57.83203125 C23.1637608 63.34104507 24.93728984 68.65987258 27 74 C27.5848928 75.74264358 28.1515026 77.49170166 28.6875 79.25 C28.93886719 80.05953125 29.19023437 80.8690625 29.44921875 81.703125 C30 84 30 84 30 88 C30.66 88 31.32 88 32 88 C32.24907104 88.89138672 32.24907104 88.89138672 32.50317383 89.80078125 C33.26934806 92.53487783 34.04088742 95.26743347 34.8125 98 C35.07353516 98.93457031 35.33457031 99.86914062 35.60351562 100.83203125 C36.97649846 105.67984718 38.46394972 110.40914095 40.2878418 115.10546875 C41.50965316 118.35581368 42.49269002 121.67825145 43.5 125 C45.37124648 131.11718401 45.37124648 131.11718401 47.5625 137.125 C48.97215853 140.70091345 49.97061129 144.36058511 51 148.0625 C52.01084407 151.68086229 53.01907057 155.04449799 54.5 158.5 C56.4713111 163.0997259 57.69274412 167.83184437 59.03125 172.6484375 C59.94556469 175.81167137 61.01152204 178.82537648 62.21875 181.8828125 C63.66786365 185.80991049 64.81742036 189.83512551 66.03125 193.83984375 C67.03690144 197.12037607 68.11587353 200.36849703 69.21875 203.6171875 C70.54064755 207.64897503 71.73218299 211.7211176 72.9375 215.7890625 C73.96778184 219.0655293 73.96778184 219.0655293 75.46875 222.375 C77.13579849 226.32148214 78.34217814 230.25830005 79.5 234.375 C79.93372279 235.88315034 80.36860721 237.39096714 80.8046875 238.8984375 C81.01061523 239.6109668 81.21654297 240.32349609 81.42871094 241.05761719 C82.7511727 245.55398716 84.28401284 249.97741875 85.84765625 254.39453125 C86.12480469 255.19246094 86.40195312 255.99039063 86.6875 256.8125 C86.93886719 257.52019531 87.19023437 258.22789062 87.44921875 258.95703125 C88 261 88 261 88 265 C88.66 265 89.32 265 90 265 C90.8397028 267.91496831 91.67196003 270.8317186 92.5 273.75 C92.73847656 274.575 92.97695313 275.4 93.22265625 276.25 C93.44824219 277.04921875 93.67382812 277.8484375 93.90625 278.671875 C94.11572266 279.4050293 94.32519531 280.13818359 94.54101562 280.89355469 C95 283 95 283 95 287 C95.66 287 96.32 287 97 287 C98.01094544 290.39267194 99.00680051 293.78959455 100 297.1875 C100.28617187 298.14720703 100.57234375 299.10691406 100.8671875 300.09570312 C101.27324219 301.49272461 101.27324219 301.49272461 101.6875 302.91796875 C101.93886719 303.77156982 102.19023437 304.6251709 102.44921875 305.50463867 C103.01786865 308.08095545 103.09883894 310.37047227 103 313 C101.21046815 313.83790789 99.41830305 314.67019396 97.625 315.5 C96.62726563 315.9640625 95.62953125 316.428125 94.6015625 316.90625 C92 318 92 318 90 318 C90 318.66 90 319.32 90 320 C88.37750059 320.83819158 86.75191503 321.6704116 85.125 322.5 C84.22007812 322.9640625 83.31515625 323.428125 82.3828125 323.90625 C80 325 80 325 78 325 C78 325.66 78 326.32 78 327 C76.3125 328.296875 76.3125 328.296875 74 329.75 C70.04578189 332.28619677 66.31773922 334.99208425 62.62890625 337.8984375 C61 339 61 339 59 339 C58.773125 339.556875 58.54625 340.11375 58.3125 340.6875 C55.96531337 344.82301931 52.40555167 347.67341768 48.75 350.625 C43.8080415 354.80251612 39.9665296 359.91878872 36 365 C35.12601562 366.10988281 35.12601562 366.10988281 34.234375 367.2421875 C31.0928868 371.31977572 28.4516755 375.47382984 26 380 C25.34 380 24.68 380 24 380 C23.7525 380.825 23.505 381.65 23.25 382.5 C19.39130435 393.30434783 19.39130435 393.30434783 16 395 C15.05431417 397.15788312 14.19047955 399.35212122 13.375 401.5625 C12.92898438 402.76003906 12.48296875 403.95757812 12.0234375 405.19140625 C11.68570312 406.11824219 11.34796875 407.04507812 11 408 C10.34 408 9.68 408 9 408 C8.76216797 408.96486328 8.76216797 408.96486328 8.51953125 409.94921875 C7.19210612 415.09024093 5.65831762 419.96809785 3.625 424.875 C0.00985163 433.94034165 -1.90302468 443.49146431 -4 453 C-4.66 453 -5.32 453 -6 453 C-6.05406006 453.70672852 -6.10812012 454.41345703 -6.16381836 455.14160156 C-6.79153102 463.03394789 -7.63311213 470.88800117 -8.5625 478.75 C-8.70107422 479.9359375 -8.83964844 481.121875 -8.98242188 482.34375 C-9.31985417 485.2293779 -9.65907233 488.11478335 -10 491 C-10.99 490.67 -11.98 490.34 -13 490 C-13.02683987 487.02077407 -13.04676037 484.04178705 -13.0625 481.0625 C-13.07087891 480.21236328 -13.07925781 479.36222656 -13.08789062 478.48632812 C-13.09111328 477.67744141 -13.09433594 476.86855469 -13.09765625 476.03515625 C-13.10551147 474.91185913 -13.10551147 474.91185913 -13.11352539 473.76586914 C-13 472 -13 472 -12 471 C-11.87433826 469.54240175 -11.81659636 468.07888917 -11.78604126 466.61620331 C-11.76376654 465.66386197 -11.74149181 464.71152062 -11.7185421 463.73032045 C-11.69879137 462.67168653 -11.67904064 461.61305261 -11.65869141 460.52233887 C-11.63404123 459.40738021 -11.60939106 458.29242156 -11.58399391 457.14367628 C-11.50188184 453.37646714 -11.42677382 449.60914966 -11.3515625 445.84179688 C-11.29435747 443.15364062 -11.23676045 440.46549555 -11.1786499 437.77735901 C-11.05392667 431.97375008 -10.93267988 426.17007683 -10.81365967 420.36634827 C-10.64146154 411.97392729 -10.46298004 403.58164893 -10.28274941 395.18939704 C-9.99041618 381.5734392 -9.70173292 367.9574068 -9.41601562 354.34130859 C-9.39889975 353.52569857 -9.38178387 352.71008855 -9.36414933 351.86976308 C-9.24266955 346.07984408 -9.12131968 340.28992236 -9 334.5 C-8.86141772 327.88622859 -8.72277671 321.27245841 -8.58398438 314.65869141 C-8.5583436 313.43675891 -8.5583436 313.43675891 -8.53218484 312.1901409 C-8.24744955 298.6264913 -7.95890361 285.06292535 -7.66761589 271.49941492 C-7.4879376 263.12418787 -7.31174907 254.74890089 -7.13999033 246.37350762 C-7.0221696 240.63881398 -6.90093585 234.90419924 -6.77696943 229.16963518 C-6.70546755 225.85621277 -6.63615099 222.54276884 -6.56999969 219.2292347 C-6.49822542 215.64526509 -6.42054164 212.0614724 -6.34130859 208.47766113 C-6.32155787 207.41902721 -6.30180714 206.36039329 -6.2814579 205.26967955 C-6.25918318 204.3173382 -6.23690845 203.36499686 -6.21395874 202.38379669 C-6.19665396 201.55540928 -6.17934917 200.72702188 -6.16152 199.87353182 C-6 198 -6 198 -5 197 C-4.85513697 194.68225057 -4.77457945 192.39167982 -4.73461914 190.07125854 C-4.71813607 189.33778108 -4.701653 188.60430361 -4.68467045 187.84859955 C-4.63019017 185.37163592 -4.58272043 182.89458587 -4.53515625 180.41748047 C-4.49765165 178.64858095 -4.45970805 176.87969068 -4.4213562 175.11080933 C-4.33942913 171.28962286 -4.26057949 167.46838929 -4.18405151 163.64709091 C-4.0627496 157.59389102 -3.93435918 151.54085432 -3.80493164 145.48782349 C-3.55408679 133.71035518 -3.31053038 121.93274148 -3.06770325 110.15510559 C-2.75932815 95.21486358 -2.44761722 80.27469386 -2.12954998 65.33465493 C-2.00195351 59.33015266 -1.87784975 53.32559172 -1.75656128 47.32095885 C-1.67997074 43.56172164 -1.60054412 39.80254794 -1.52042007 36.04338455 C-1.4841546 34.31459758 -1.44904402 32.58578588 -1.41524887 30.85694885 C-1.21293828 20.54284783 -0.79034718 10.28733085 0 0 Z " fill="#000000" transform="translate(303,15)"/>
<path d="M0 0 C8.7274108 1.09092635 17.23898196 7.21326492 24.93359375 11.2890625 C28.60632936 13.22960028 32.28264231 15.15396395 36.00390625 17 C41.34334437 19.6504263 46.59057212 22.476097 51.84570312 25.2890625 C57.13732146 28.09633277 62.49360895 30.64164738 68 33 C68 33.66 68 34.32 68 35 C68.845625 35.268125 69.69125 35.53625 70.5625 35.8125 C74.13854067 37.0478595 77.53860908 38.476988 81 40 C81 40.66 81 41.32 81 42 C81.59167969 42.19335938 82.18335938 42.38671875 82.79296875 42.5859375 C86.9146645 43.94414719 90.9950524 45.32050585 95 47 C95 47.66 95 48.32 95 49 C95.60328125 49.19335938 96.2065625 49.38671875 96.828125 49.5859375 C97.62734375 49.84632813 98.4265625 50.10671875 99.25 50.375 C100.43335938 50.75785156 100.43335938 50.75785156 101.640625 51.1484375 C103.86627958 51.95173667 105.90931672 52.89711662 108 54 C108 54.66 108 55.32 108 56 C109.175625 56.33 110.35125 56.66 111.5625 57 C116.99728436 58.78559103 121.86694602 61.46558837 126.85766602 64.21875 C129.5542676 65.70556647 132.07050272 67.02350091 135 68 C135 68.66 135 69.32 135 70 C136.32 70.33 137.64 70.66 139 71 C139.11500883 100.1514695 138.8776878 129.27185181 138.19228363 158.41521597 C138.07637134 163.39302791 137.96654746 168.37097497 137.85595703 173.34890747 C137.64756538 182.69020391 137.43404493 192.03137505 137.21846962 201.37250817 C136.97247717 212.0431699 136.73252532 222.71396514 136.49296951 233.38477302 C136.00182375 255.25666534 135.50345402 277.12838774 135 299 C134.34 299 133.68 299 133 299 C133 313.19 133 327.38 133 342 C132.01 341.67 131.02 341.34 130 341 C128.97265625 338.84765625 128.97265625 338.84765625 128.0625 336.0625 C126.77468304 332.26786377 125.44773857 328.52468947 123.9375 324.8125 C122.72796076 321.82645 121.55341622 318.83477308 120.4375 315.8125 C119.52609019 313.34923024 118.55278449 310.97513113 117.5 308.5625 C113 297.875 113 297.875 113 293 C112.34 293 111.68 293 111 293 C110.62488281 291.83984375 110.24976563 290.6796875 109.86328125 289.484375 C107.25132133 281.48186576 104.55546767 273.60445387 101.22265625 265.8671875 C92 244.23961661 92 244.23961661 92 238 C91.34 238 90.68 238 90 238 C89.61328125 236.7934375 89.2265625 235.586875 88.828125 234.34375 C88.30241187 232.72905967 87.7763516 231.11448232 87.25 229.5 C86.99734375 228.70851563 86.7446875 227.91703125 86.484375 227.1015625 C84.95787816 222.44574714 83.16314947 218.15739717 80.90136719 213.81347656 C79.66475465 211.32551397 78.82231101 208.77548461 78 206.125 C76.76974965 202.27441329 75.4399232 198.53933563 73.875 194.8125 C72.00470923 190.26931337 70.93287123 185.8198347 70 181 C69.34 181 68.68 181 68 181 C67.16112944 178.56427941 66.32873471 176.12666783 65.5 173.6875 C65.26152344 172.99720703 65.02304688 172.30691406 64.77734375 171.59570312 C63.76791737 168.61068511 63 166.17341086 63 163 C62.34 163 61.68 163 61 163 C60.16112944 160.56427941 59.32873471 158.12666783 58.5 155.6875 C58.26152344 154.99720703 58.02304688 154.30691406 57.77734375 153.59570312 C56.76791737 150.61068511 56 148.17341086 56 145 C55.34 145 54.68 145 54 145 C53.62488281 143.83984375 53.24976563 142.6796875 52.86328125 141.484375 C49.38776278 130.83920657 49.38776278 130.83920657 45.25 120.4375 C43.17739684 115.65918339 41.93857017 111.11947367 41 106 C40.34 106 39.68 106 39 106 C38.61328125 104.80503906 38.2265625 103.61007812 37.828125 102.37890625 C34.296359 91.48128929 34.296359 91.48128929 29.86328125 80.9296875 C28.60685217 78.12119898 27.71127375 75.21891738 26.76953125 72.29296875 C25.36956238 68.1214879 23.66221242 64.07242044 22 60 C13 37.85526316 13 37.85526316 13 33 C12.34 33 11.68 33 11 33 C10.80889648 32.44650879 10.61779297 31.89301758 10.42089844 31.32275391 C9.53307435 28.75597008 8.64218037 26.19027298 7.75 23.625 C7.431521 22.70920166 7.11304199 21.79340332 6.78491211 20.84985352 C4.88525 15.42314403 2.91090197 10.05744262 0.62890625 4.77734375 C0 3 0 3 0 0 Z " fill="#000000" transform="translate(150,201)"/>
<path d="M0 0 C1.02734375 2.40625 1.02734375 2.40625 1.9375 5.5 C3.1269256 9.35537953 4.37310879 12.99096546 6.125 16.625 C8.02311282 20.67331875 8.84123429 24.6236716 9.5078125 29.03125 C9.67023438 29.6809375 9.83265625 30.330625 10 31 C10.66 31.33 11.32 31.66 12 32 C12.77783203 33.62646484 12.77783203 33.62646484 13.5078125 35.7109375 C13.77207031 36.46117187 14.03632813 37.21140625 14.30859375 37.984375 C14.57800781 38.77328125 14.84742188 39.5621875 15.125 40.375 C15.40214844 41.15617187 15.67929688 41.93734375 15.96484375 42.7421875 C18 48.59702124 18 48.59702124 18 52 C18.66 52 19.32 52 20 52 C20.83887056 54.43572059 21.67126529 56.87333217 22.5 59.3125 C22.85771484 60.34793945 22.85771484 60.34793945 23.22265625 61.40429688 C24.23208263 64.38931489 25 66.82658914 25 70 C25.66 70 26.32 70 27 70 C27.38671875 71.19496094 27.7734375 72.38992188 28.171875 73.62109375 C31.703641 84.51871071 31.703641 84.51871071 36.13671875 95.0703125 C37.39033557 97.87251481 38.2848169 100.76752452 39.22265625 103.6875 C40.62684632 107.86478906 42.33368037 111.92190196 44 116 C44.68926736 117.70762102 45.37678584 119.41594906 46.0625 121.125 C46.36285156 121.87007813 46.66320312 122.61515625 46.97265625 123.3828125 C48.06521734 126.16614304 49.11675751 128.96374919 50.16333008 131.76464844 C51.69956524 135.86904562 53.25576306 139.96584368 54.8125 144.0625 C55.33589966 145.44296509 55.33589966 145.44296509 55.86987305 146.85131836 C57.70293848 151.6672545 59.58185633 156.45648563 61.55102539 161.21826172 C64.36581728 168.03549094 66.46848201 174.78574421 68 182 C68.66 182 69.32 182 70 182 C70.99 185.63 71.98 189.26 73 193 C70 193 70 193 67.4375 190.8125 C65 188 65 188 63.9375 185.3125 C62.75098349 182.38575928 61.74957544 182.36720791 59 181 C57.47607422 179.50366211 57.47607422 179.50366211 56.0546875 177.77734375 C55.27544922 176.84631836 55.27544922 176.84631836 54.48046875 175.89648438 C53.95066406 175.25001953 53.42085937 174.60355469 52.875 173.9375 C51.81286156 172.65249079 50.74788725 171.36981876 49.6796875 170.08984375 C49.21288574 169.52128662 48.74608398 168.95272949 48.26513672 168.36694336 C47.02451207 166.86531506 47.02451207 166.86531506 45 166 C43.99247639 164.33787066 42.99363954 162.67046647 42 161 C40.74622294 159.4681887 39.45320528 157.96774436 38.125 156.5 C37.41472656 155.71496094 36.70445312 154.92992187 35.97265625 154.12109375 C34.53281396 152.5729069 33.05749638 151.05749638 31.5625 149.5625 C24.8728352 142.8728352 18.81778589 135.65899869 12.9453125 128.25 C11.01944456 125.82039747 11.01944456 125.82039747 8 124 C7.319375 122.8553125 7.319375 122.8553125 6.625 121.6875 C5.04998474 118.84066447 5.04998474 118.84066447 2.375 116.375 C0 114 0 114 -1 111 C-1.88171875 110.57654297 -1.88171875 110.57654297 -2.78125 110.14453125 C-5.83779791 108.56782608 -7.37612084 106.37507996 -9.5 103.6875 C-10.2528125 102.74261719 -11.005625 101.79773438 -11.78125 100.82421875 C-12.5134375 99.89222656 -13.245625 98.96023438 -14 98 C-16.82436391 94.4190175 -19.73308756 91.18723165 -23 88 C-28.83599089 82.30296128 -28.83599089 82.30296128 -31 79 C-31 78.34 -31 77.68 -31 77 C-31.54269531 76.8040625 -32.08539063 76.608125 -32.64453125 76.40625 C-36.01698998 74.3928418 -38.22197138 71.49523665 -40.6875 68.5 C-41.75680629 67.22571747 -42.82712642 65.95228504 -43.8984375 64.6796875 C-44.42405273 64.05288086 -44.94966797 63.42607422 -45.49121094 62.78027344 C-48.25029421 59.52473375 -51.12869496 56.37853113 -53.99609375 53.21875 C-55.81311982 51.20691607 -57.59944392 49.17339566 -59.375 47.125 C-61.8662333 44.25805867 -64.41969582 41.4569227 -67.00317383 38.67285156 C-82 22.48904255 -82 22.48904255 -82 19 C-80.7625 18.67 -79.525 18.34 -78.25 18 C-77.55390625 17.814375 -76.8578125 17.62875 -76.140625 17.4375 C-74 17 -74 17 -70 17 C-70 16.34 -70 15.68 -70 15 C-66.10590112 14.15841983 -62.20946688 13.3281894 -58.3125 12.5 C-57.20970703 12.26152344 -56.10691406 12.02304687 -54.97070312 11.77734375 C-53.90400391 11.55175781 -52.83730469 11.32617188 -51.73828125 11.09375 C-50.75899658 10.88427734 -49.77971191 10.67480469 -48.77075195 10.45898438 C-46.12044367 10.0199519 -43.68006268 9.91444333 -41 10 C-41 9.34 -41 8.68 -41 8 C-37.10590112 7.15841983 -33.20946688 6.3281894 -29.3125 5.5 C-27.65831055 5.14228516 -27.65831055 5.14228516 -25.97070312 4.77734375 C-24.90400391 4.55175781 -23.83730469 4.32617188 -22.73828125 4.09375 C-21.75899658 3.88427734 -20.77971191 3.67480469 -19.77075195 3.45898438 C-17.12044367 3.0199519 -14.68006268 2.91444333 -12 3 C-12 2.34 -12 1.68 -12 1 C-10.56496445 0.63597631 -9.12683494 0.28413409 -7.6875 -0.0625 C-6.48673828 -0.35833984 -6.48673828 -0.35833984 -5.26171875 -0.66015625 C-3 -1 -3 -1 0 0 Z " fill="#000000" transform="translate(215,382)"/>
</svg>
