<?xml version="1.0" encoding="UTF-8"?>
<svg version="1.1" xmlns="http://www.w3.org/2000/svg" width="292" height="523">
<path d="M0 0 C2.75802393 2.75802393 3.49251638 5.99181827 4.66699219 9.62280273 C5.05797844 10.80710625 5.05797844 10.80710625 5.4568634 12.01533508 C6.32599181 14.65288917 7.18642559 17.29319675 8.046875 19.93359375 C8.66015382 21.80087288 9.27395353 23.66798101 9.88824463 25.53492737 C11.51908018 30.49632294 13.14254307 35.46010194 14.7645874 40.42437744 C16.35805832 45.29677626 17.9586832 50.16682218 19.55859375 55.03710938 C26.10369547 74.97190519 32.6060802 94.92057208 39.09619141 114.87332726 C44.46020681 131.36285011 49.86465053 147.83882657 55.28805542 164.30889893 C56.80564869 168.91815084 58.3210635 173.52811758 59.83618164 178.13818359 C66.16209792 197.38552153 66.16209792 197.38552153 72.51066399 216.62539673 C74.43002553 222.43062726 76.34426979 228.23753027 78.25671387 234.04504395 C79.03705085 236.41090178 79.8194844 238.77606924 80.60412598 241.14050293 C81.67759783 244.37579715 82.74391835 247.61336486 83.80859375 250.8515625 C84.12092453 251.78660614 84.43325531 252.72164978 84.75505066 253.68502808 C86.32082478 258.47356247 87.47414495 262.98579484 88 268 C86.38544922 268.81791016 86.38544922 268.81791016 84.73828125 269.65234375 C53.42022593 285.73283592 29.10586143 308.64796648 13 340 C12.6601709 340.64984863 12.3203418 341.29969727 11.97021484 341.96923828 C-0.76278731 366.56445382 -7.01512776 393.60154588 -10 421 C-10.33 421 -10.66 421 -11 421 C-11.04922189 410.07188083 -10.91060564 399.16108565 -10.62709045 388.23687744 C-10.58638566 386.61057856 -10.54585622 384.98427528 -10.50548452 383.35796809 C-10.39521325 378.93641949 -10.28244842 374.51493763 -10.16922915 370.09346366 C-10.04710135 365.30686777 -9.92731519 360.52021316 -9.8072052 355.73356628 C-9.57201643 346.37634566 -9.33460813 337.01918264 -9.09632618 327.66204032 C-8.90263607 320.0552751 -8.70963627 312.44849267 -8.51711845 304.84169769 C-7.91114903 280.90102247 -7.30280395 256.96040878 -6.69264089 233.01984009 C-6.21180564 214.15001504 -5.7346128 195.28009989 -5.25909872 176.41014007 C-4.77017337 157.00945543 -4.27866516 137.60883776 -3.78441805 118.20828795 C-3.5072343 107.32613662 -3.23108945 96.44396128 -2.95768929 85.56171417 C-2.72504785 76.30276654 -2.48998355 67.0438843 -2.25180347 57.78507742 C-2.13043933 53.06465047 -2.01018056 48.34420239 -1.89295959 43.62367058 C-1.78549773 39.29731159 -1.67479446 34.97104776 -1.5615769 30.64483568 C-1.52131946 29.08524916 -1.48221786 27.52563225 -1.44443143 25.9659839 C-1.23330158 17.28134992 -0.84732416 8.64918062 0 0 Z " fill="#373873" transform="translate(176,19)"/>
<path d="M0 0 C9.49594825 4.35281623 18.85140938 8.89329898 28.07446289 13.79882812 C35.43701593 17.71459716 42.83970496 21.55063428 50.25 25.375 C60.98106265 30.91676063 71.70003049 36.4809981 82.40234375 42.078125 C86.34753542 44.14062279 90.29895011 46.19066561 94.25390625 48.234375 C95.28854004 48.7703833 96.32317383 49.3063916 97.38916016 49.85864258 C99.35490022 50.87677817 101.32192986 51.89242965 103.29052734 52.9050293 C104.18336426 53.36820557 105.07620117 53.83138184 105.99609375 54.30859375 C106.77138428 54.70876709 107.5466748 55.10894043 108.34545898 55.52124023 C109.22145752 56.00923096 110.09745605 56.49722168 111 57 C111.65645288 57.21211121 112.31290575 57.42422241 112.98925114 57.64276123 C115.69200567 58.76769038 117.12687963 59.72376584 119 62 C120.13291741 67.63804771 119.79010748 73.21422397 119.56835938 78.93579102 C119.53016296 80.68216187 119.49560531 82.42861561 119.46443939 84.17512608 C119.39088722 87.88621876 119.29262292 91.59549903 119.17453003 95.305439 C118.9985057 100.85585115 118.88063178 106.40633531 118.7746582 111.95846558 C118.56263223 122.6159606 118.28165969 133.27109683 117.99035454 143.92667842 C117.84646292 149.23150216 117.70856845 154.53648234 117.56994629 159.84144592 C117.30841503 169.81693657 117.04175322 179.79228267 116.77308702 189.76758343 C116.46667997 201.15389455 116.16623764 212.54036085 115.86621189 223.92684162 C115.25061851 247.28473525 114.62780897 270.64243172 114 294 C111.74147791 291.8260782 110.46382093 290.19582594 109.35620117 287.24951172 C108.92113503 286.11083649 108.92113503 286.11083649 108.47727966 284.94915771 C108.01479576 283.70201996 108.01479576 283.70201996 107.54296875 282.4296875 C107.20801895 281.54702209 106.87306915 280.66435669 106.52796936 279.75494385 C105.79550203 277.82203671 105.06674065 275.88772222 104.34118652 273.95220947 C102.75468361 269.72055582 101.15021093 265.49578119 99.54721069 261.27035522 C98.69049143 259.01129374 97.83473948 256.75186522 96.97988892 254.49209595 C92.5811737 242.86828217 88.10793978 231.27364027 83.62539673 219.6819458 C81.76596749 214.87323215 79.90871595 210.0636784 78.05131531 205.25418091 C76.63927579 201.59806907 75.22689265 197.94209013 73.81445312 194.28613281 C69.66409911 183.54254033 65.51766185 172.79743621 61.37097168 162.0524292 C59.08081228 156.11822264 56.79039283 150.18411646 54.5 144.25 C53.58333209 141.87500048 52.66666542 139.50000048 51.75 137.125 C51.29625 135.949375 50.8425 134.77375 50.375 133.5625 C46.25000005 122.87500013 46.25000005 122.87500013 44.8752594 119.31317139 C43.95772869 116.93593319 43.04019736 114.55869524 42.12266541 112.18145752 C39.84421353 106.27820387 37.56577213 100.37494618 35.28735352 94.47167969 C31.00485789 83.3759851 26.7222559 72.28033159 22.43930054 61.18481445 C20.670105 56.60149559 18.9009602 52.01815715 17.1318264 47.43481445 C15.92785207 44.31565735 14.72383994 41.19651485 13.51977539 38.07739258 C13.06530029 36.90007568 12.6108252 35.72275879 12.14257812 34.50976562 C11.70305817 33.3713623 11.26353821 32.23295898 10.81069946 31.06005859 C9.97080656 28.88356301 9.13156756 26.70681495 8.2930603 24.52978516 C6.63356477 20.2220684 4.97196446 15.91573733 3.27392578 11.62304688 C2.81356934 10.45322266 2.35321289 9.28339844 1.87890625 8.078125 C1.50451416 7.1387207 1.13012207 6.19931641 0.74438477 5.23144531 C0 3 0 3 0 0 Z " fill="#33336D" transform="translate(44,178)"/>
<path d="M0 0 C0.69053467 1.82422485 0.69053467 1.82422485 1.39501953 3.68530273 C10.83387048 28.61104423 20.33038714 53.51358937 29.9375 78.375 C30.39114929 79.54930573 30.84479858 80.72361145 31.31219482 81.9335022 C35.01949088 91.529954 38.72824869 101.125841 42.43902588 110.72094727 C45.26870786 118.03777028 48.09557327 125.35567239 50.91848755 132.67510986 C51.79810347 134.95415599 52.67884024 137.23276988 53.5607605 139.51092529 C54.7776777 142.65464998 55.99083228 145.79980217 57.203125 148.9453125 C57.56038162 149.86552185 57.91763824 150.7857312 58.28572083 151.73382568 C60.09716859 156.4463583 61.70377486 161.11965426 63 166 C61 166 61 166 59.6953125 164.7421875 C59.17710937 164.12601563 58.65890625 163.50984375 58.125 162.875 C57.19107422 161.77865234 57.19107422 161.77865234 56.23828125 160.66015625 C55.49964844 159.78230469 54.76101562 158.90445313 54 158 C52.10879861 155.76687053 50.21207403 153.53851074 48.3125 151.3125 C47.80259521 150.71469727 47.29269043 150.11689453 46.76733398 149.50097656 C42.67113838 144.72473233 38.44363644 140.08503429 34.15625 135.48046875 C30.94030561 132.02630626 27.79482045 128.52564408 24.70703125 124.95703125 C22.66366569 122.6144085 20.58319141 120.30726578 18.5 118 C15.23609152 114.38323655 12.01209051 110.73610392 8.8125 107.0625 C6.72788836 104.69035571 4.61571356 102.34443935 2.5 100 C-0.76390848 96.38323655 -3.98790949 92.73610392 -7.1875 89.0625 C-9.27211164 86.69035571 -11.38428644 84.34443935 -13.5 82 C-16.76704335 78.37976277 -19.99520776 74.73016435 -23.1953125 71.05078125 C-25.22958141 68.73911203 -27.3022231 66.4646857 -29.375 64.1875 C-32.42858867 60.81059018 -35.34429205 57.36782868 -38.1875 53.8125 C-43.08708511 47.75044742 -48.41710826 42.12557265 -53.7578125 36.453125 C-59.59739668 30.24961019 -64.9748878 23.8806988 -70 17 C-62.61258077 14.39473438 -55.1532176 12.46987618 -47.5390625 10.64453125 C-46.27154144 10.33803146 -45.00402039 10.03153168 -43.6980896 9.71574402 C-41.03451287 9.0720638 -38.37029536 8.43112925 -35.70556641 7.79223633 C-32.2914274 6.97346137 -28.87893032 6.14806212 -25.46686745 5.32068348 C-22.20008104 4.52940547 -18.93202913 3.74342101 -15.6640625 2.95703125 C-14.43910065 2.6602095 -13.21413879 2.36338776 -11.95205688 2.05757141 C-10.82012909 1.78696396 -9.68820129 1.51635651 -8.52197266 1.23754883 C-7.52541656 0.99788895 -6.52886047 0.75822906 -5.50210571 0.51130676 C-3 0 -3 0 0 0 Z " fill="#414481" transform="translate(99,334)"/>
</svg>
