<?xml version="1.0" encoding="UTF-8"?>
<svg version="1.1" xmlns="http://www.w3.org/2000/svg" width="612" height="792">
<path d="M0 0 C0.99 0 1.98 0 3 0 C4.19287411 3.87684087 5 6.91621923 5 11 C5.66 11 6.32 11 7 11 C8.13764351 15.26616316 9 18.56486311 9 23 C9.66 23 10.32 23 11 23 C12.13764351 27.26616316 13 30.56486311 13 35 C13.66 35 14.32 35 15 35 C15.18175781 35.76183594 15.36351562 36.52367187 15.55078125 37.30859375 C17.09727994 43.66113452 18.85390587 49.82878711 21 56 C21.81616255 58.4155114 22.62930921 60.83182732 23.4375 63.25 C23.65245117 63.89251709 23.86740234 64.53503418 24.08886719 65.19702148 C25.84105588 70.46215088 27.47992195 75.7584186 29.09765625 81.06640625 C30.7610379 86.47419682 32.51837122 91.81119348 34.625 97.0625 C36.14750891 101.02421167 36.62335807 104.78161039 37 109 C37.66 109 38.32 109 39 109 C39.18175781 109.76183594 39.36351562 110.52367187 39.55078125 111.30859375 C41.40385489 118.9204501 43.55458495 126.25506101 46.375 133.5625 C48.20282119 138.34369542 49.6559843 143.24546257 51.15478516 148.13696289 C52.23721996 151.64643877 53.37204565 155.09564219 54.75 158.5 C56.15518587 162.43452044 56.62967796 165.8523931 57 170 C57.66 170 58.32 170 59 170 C60.13764351 174.26616316 61 177.56486311 61 182 C61.66 182 62.32 182 63 182 C64.13764351 186.26616316 65 189.56486311 65 194 C65.66 194 66.32 194 67 194 C67.18175781 194.76183594 67.36351562 195.52367187 67.55078125 196.30859375 C69.40385489 203.9204501 71.55458495 211.25506101 74.375 218.5625 C76.20282119 223.34369542 77.6559843 228.24546257 79.15478516 233.13696289 C80.23721996 236.64643877 81.37204565 240.09564219 82.75 243.5 C84.15518587 247.43452044 84.62967796 250.8523931 85 255 C85.66 255 86.32 255 87 255 C88.13764351 259.26616316 89 262.56486311 89 267 C89.66 267 90.32 267 91 267 C92.13764351 271.26616316 93 274.56486311 93 279 C93.66 279 94.32 279 95 279 C95.18175781 279.76183594 95.36351562 280.52367187 95.55078125 281.30859375 C97.29255183 288.46325136 99.35665588 295.37516011 101.8203125 302.30859375 C103.4152031 306.89971085 104.48543618 311.16310012 105 316 C105.66 316 106.32 316 107 316 C107.33872513 317.41538717 107.67074624 318.83237963 108 320.25 C108.185625 321.03890625 108.37125 321.8278125 108.5625 322.640625 C109 325 109 325 109 329 C109.66 329 110.32 329 111 329 C112.13764351 333.26616316 113 336.56486311 113 341 C113.66 341 114.32 341 115 341 C115.50980881 342.70543184 116.00738268 344.41452318 116.5 346.125 C116.7784375 347.07632812 117.056875 348.02765625 117.34375 349.0078125 C118.02146084 352.09785121 118.11227205 354.84702648 118 358 C115.87717331 359.00460531 113.75166979 360.00355602 111.625 361 C109.84996094 361.8353125 109.84996094 361.8353125 108.0390625 362.6875 C105 364 105 364 103 364 C103 364.66 103 365.32 103 366 C100.69 366.66 98.38 367.32 96 368 C96 368.66 96 369.32 96 370 C94.82630859 370.61488281 94.82630859 370.61488281 93.62890625 371.2421875 C92.61699219 371.78101563 91.60507812 372.31984375 90.5625 372.875 C89.55316406 373.40867187 88.54382813 373.94234375 87.50390625 374.4921875 C84.89859558 375.75654114 84.89859558 375.75654114 84 378 C82.34928604 379.02611949 80.68029994 380.02308143 79 381 C77.9171875 381.8353125 77.9171875 381.8353125 76.8125 382.6875 C75 384 75 384 73 384 C73 384.66 73 385.32 73 386 C72.195625 386.268125 71.39125 386.53625 70.5625 386.8125 C69.716875 387.204375 68.87125 387.59625 68 388 C67.67 388.99 67.34 389.98 67 391 C65.5479183 392.2210687 64.09178034 393.43802344 62.60546875 394.6171875 C60.74347839 396.14341172 60.74347839 396.14341172 58.5625 398.9375 C56.08420502 401.89936473 53.54332596 404.1968352 50.55078125 406.60546875 C48.7459798 408.11259341 48.7459798 408.11259341 47 411 C46.34 411 45.68 411 45 411 C44.34 412.65 43.68 414.3 43 416 C42.34 416 41.68 416 41 416 C40.7525 416.70125 40.505 417.4025 40.25 418.125 C36.77777778 426.11111111 36.77777778 426.11111111 33 428 C30.83152429 431.59153789 28.81595138 435.21676796 27 439 C26.34 439 25.68 439 25 439 C24.855625 439.598125 24.71125 440.19625 24.5625 440.8125 C24.1127561 442.56150404 23.57107659 444.28677023 23 446 C22.34 446 21.68 446 21 446 C20.74347656 446.84304688 20.48695313 447.68609375 20.22265625 448.5546875 C18.91193245 452.24816479 17.24502963 455.65901535 15.4375 459.125 C12.65672384 464.34770444 12.65672384 464.34770444 11 470 C10.34 470 9.68 470 9 470 C8.83564453 470.8353125 8.83564453 470.8353125 8.66796875 471.6875 C7.2917866 478.3110759 5.23412551 484.28492388 2.4375 490.4375 C1.03870839 493.90407052 0.22015181 497.13367524 -0.47265625 500.7890625 C-1 503 -1 503 -1.99609375 505.4375 C-3.04060951 508.10365696 -3.54700324 510.55185949 -4 513.375 C-4.49713677 516.45547245 -5.09823045 519.32911069 -5.9921875 522.32421875 C-7.10056864 526.36680268 -7.66121987 530.28248623 -8.125 534.4375 C-8.25455078 535.53481445 -8.25455078 535.53481445 -8.38671875 536.65429688 C-8.59628393 538.43560094 -8.79887868 540.21772281 -9 542 C-9.66 542 -10.32 542 -11 542 C-10.98839844 542.7734375 -10.97679687 543.546875 -10.96484375 544.34375 C-10.91290155 550.33936364 -11.08815844 556.07302983 -12 562 C-12.99 561.67 -13.98 561.34 -15 561 C-15.02888146 557.68751813 -15.04675799 554.37506833 -15.0625 551.0625 C-15.07087891 550.11697266 -15.07925781 549.17144531 -15.08789062 548.19726562 C-15.09111328 547.29814453 -15.09433594 546.39902344 -15.09765625 545.47265625 C-15.10289307 544.64000244 -15.10812988 543.80734863 -15.11352539 542.94946289 C-15 541 -15 541 -14 540 C-13.88268744 538.6370037 -13.83274208 537.268124 -13.81054688 535.90026855 C-13.79378906 535.01685287 -13.77703125 534.13343719 -13.75976562 533.22325134 C-13.73946289 531.75825951 -13.73946289 531.75825951 -13.71875 530.26367188 C-13.70070313 529.24100723 -13.68265625 528.21834259 -13.6640625 527.16468811 C-13.62535945 524.9362497 -13.58892258 522.70777107 -13.55444336 520.47926331 C-13.49984411 516.95869824 -13.43922556 513.43828382 -13.37695312 509.91784668 C-13.24586196 502.44531866 -13.12240293 494.97267473 -13 487.5 C-12.85822931 478.84492732 -12.7133975 470.18992986 -12.56030273 461.53504944 C-12.50041917 458.05560514 -12.44641322 454.57610002 -12.39257812 451.09655762 C-12.355757 448.97647609 -12.31866271 446.85639929 -12.28125 444.73632812 C-12.26771484 443.7596669 -12.25417969 442.78300568 -12.24023438 441.77674866 C-12.22347656 440.89333298 -12.20671875 440.0099173 -12.18945312 439.09973145 C-12.17066101 437.9416032 -12.17066101 437.9416032 -12.15148926 436.76007843 C-12 435 -12 435 -11 434 C-10.9119459 432.43964351 -10.89307525 430.87531156 -10.90234375 429.3125 C-10.90729858 427.81589844 -10.90729858 427.81589844 -10.91235352 426.2890625 C-10.92065186 425.20367187 -10.9289502 424.11828125 -10.9375 423 C-10.94317993 421.34097656 -10.94317993 421.34097656 -10.94897461 419.6484375 C-10.96124368 416.09891985 -10.97987605 412.54948131 -11 409 C-11.02645787 404.33333561 -11.04652277 399.6667107 -11.0625 395 C-11.07079834 393.91460937 -11.07909668 392.82921875 -11.08764648 391.7109375 C-11.09094971 390.71320313 -11.09425293 389.71546875 -11.09765625 388.6875 C-11.10289307 387.80449219 -11.10812988 386.92148437 -11.11352539 386.01171875 C-11 384 -11 384 -10 383 C-9.88268744 381.6370037 -9.83274208 380.268124 -9.81054688 378.90026855 C-9.79378906 378.01685287 -9.77703125 377.13343719 -9.75976562 376.22325134 C-9.74623047 375.24659012 -9.73269531 374.26992889 -9.71875 373.26367188 C-9.70070313 372.24100723 -9.68265625 371.21834259 -9.6640625 370.16468811 C-9.62535945 367.9362497 -9.58892258 365.70777107 -9.55444336 363.47926331 C-9.49984411 359.95869824 -9.43922556 356.43828382 -9.37695312 352.91784668 C-9.24586196 345.44531866 -9.12240293 337.97267473 -9 330.5 C-8.85822931 321.84492732 -8.7133975 313.18992986 -8.56030273 304.53504944 C-8.50041917 301.05560514 -8.44641322 297.57610002 -8.39257812 294.09655762 C-8.355757 291.97647609 -8.31866271 289.85639929 -8.28125 287.73632812 C-8.26771484 286.7596669 -8.25417969 285.78300568 -8.24023438 284.77674866 C-8.22347656 283.89333298 -8.20671875 283.0099173 -8.18945312 282.09973145 C-8.17692505 281.32764595 -8.16439697 280.55556046 -8.15148926 279.76007843 C-8 278 -8 278 -7 277 C-6.9119459 275.43964351 -6.89307525 273.87531156 -6.90234375 272.3125 C-6.90564697 271.31476563 -6.9089502 270.31703125 -6.91235352 269.2890625 C-6.92065186 268.20367187 -6.9289502 267.11828125 -6.9375 266 C-6.94128662 264.89398438 -6.94507324 263.78796875 -6.94897461 262.6484375 C-6.96124368 259.09891985 -6.97987605 255.54948131 -7 252 C-7.02645787 247.33333561 -7.04652277 242.6667107 -7.0625 238 C-7.07079834 236.91460937 -7.07909668 235.82921875 -7.08764648 234.7109375 C-7.09260132 233.21433594 -7.09260132 233.21433594 -7.09765625 231.6875 C-7.10289307 230.80449219 -7.10812988 229.92148437 -7.11352539 229.01171875 C-7 227 -7 227 -6 226 C-5.86645657 223.97603818 -5.80302082 221.94744051 -5.76585388 219.91941833 C-5.7527488 219.27744619 -5.73964372 218.63547404 -5.72614151 217.9740482 C-5.68311864 215.80754976 -5.64713954 213.64099003 -5.61108398 211.47436523 C-5.58180121 209.92743134 -5.55208743 208.38050556 -5.52197266 206.83358765 C-5.44119568 202.62104405 -5.36648417 198.4084117 -5.29281878 194.19573855 C-5.21490082 189.79807541 -5.13146387 185.40051716 -5.04859924 181.00294495 C-4.8924187 172.66967012 -4.74123925 164.33631228 -4.59183317 156.00291353 C-4.42154226 146.51811378 -4.24571164 137.03341929 -4.06940353 127.54872978 C-3.70674866 108.03259761 -3.3510901 88.51634346 -3 69 C-2.34 69 -1.68 69 -1 69 C-1.00222061 68.38629044 -1.00444122 67.77258087 -1.00672913 67.14027405 C-1.02911097 60.66586905 -1.04404145 54.1914753 -1.05493164 47.71704102 C-1.05991419 45.31111198 -1.06670265 42.90518591 -1.07543945 40.49926758 C-1.12331578 26.96153313 -1.05654535 13.50162521 0 0 Z " fill="#FFFFFF" transform="translate(308,70)"/>
<path d="M0 0 C6.49142565 0.42335385 11.33492989 2.91099799 17 6 C17 6.66 17 7.32 17 8 C17.99 8.2475 18.98 8.495 20 8.75 C24.28095196 9.95812141 28.09059215 11.90821294 32 14 C32 14.66 32 15.32 32 16 C32.763125 16.144375 33.52625 16.28875 34.3125 16.4375 C37 17 37 17 40 18 C40 18.66 40 19.32 40 20 C40.9796875 20.23847656 41.959375 20.47695313 42.96875 20.72265625 C47.48559219 22.01431862 51.40636047 24.1709858 55.5 26.4375 C60.58605227 29.22618519 65.62857146 31.8019549 71 34 C71 34.66 71 35.32 71 36 C71.969375 36.226875 72.93875 36.45375 73.9375 36.6875 C77.90770577 37.81038648 81.22323157 39.69728091 84.77734375 41.7578125 C87.766715 43.42849802 90.82724498 44.71739691 94 46 C94 46.66 94 47.32 94 48 C94.99 48.2475 95.98 48.495 97 48.75 C101.28095196 49.95812141 105.09059215 51.90821294 109 54 C109 54.66 109 55.32 109 56 C111.64 56.66 114.28 57.32 117 58 C117 58.66 117 59.32 117 60 C117.99 60.2475 118.98 60.495 120 60.75 C124.28095196 61.95812141 128.09059215 63.90821294 132 66 C132 66.66 132 67.32 132 68 C132.763125 68.144375 133.52625 68.28875 134.3125 68.4375 C137 69 137 69 140 70 C140 70.66 140 71.32 140 72 C140.969375 72.226875 141.93875 72.45375 142.9375 72.6875 C146.93257929 73.8161911 150.31347732 75.69950366 153.88671875 77.78125 C155.89146644 78.93740763 157.92632186 79.97440882 160 81 C160.14175195 116.01433976 159.81715503 150.99490399 159 186 C158.34 186 157.68 186 157 186 C157.00523682 187.28590027 157.01047363 188.57180054 157.01586914 189.89666748 C157.13841442 223.2040677 156.7791285 256.48149626 156.07287598 289.78100586 C155.94830617 295.71069536 155.82994846 301.64050929 155.7109375 307.5703125 C155.4797501 319.04699841 155.24216293 330.52354077 155 342 C154.34 342 153.68 342 153 342 C153 358.17 153 374.34 153 391 C150 390 150 390 148.3125 386.6875 C147 383 147 383 147 379 C146.34 378.67 145.68 378.34 145 378 C144.25390625 376.1796875 144.25390625 376.1796875 143.5625 373.875 C142.50146665 370.50714289 141.30833558 367.29555482 139.87890625 364.0625 C137.76601621 359.10425138 135.90621082 354.04034886 134 349 C133.60039062 347.95070313 133.20078125 346.90140625 132.7890625 345.8203125 C132.42554688 344.84835937 132.06203125 343.87640625 131.6875 342.875 C131.36136719 342.00617188 131.03523437 341.13734375 130.69921875 340.2421875 C130 338 130 338 130 335 C129.34 335 128.68 335 128 335 C126.68373308 331.38026598 126 328.90432869 126 325 C125.34 325 124.68 325 124 325 C122.80712589 321.12315913 122 318.08378077 122 314 C121.34 314 120.68 314 120 314 C118.65521733 310.33744485 117.32625412 306.66930305 116 303 C115.7431543 302.29343262 115.48630859 301.58686523 115.22167969 300.85888672 C114.39281674 298.57435165 113.57085188 296.28742434 112.75 294 C112.34467041 292.88733765 112.34467041 292.88733765 111.93115234 291.75219727 C110.84550586 288.71064169 110 286.25503708 110 283 C109.34 283 108.68 283 108 283 C107.01 278.05 107.01 278.05 106 273 C105.34 273 104.68 273 104 273 C103.76216797 272.12601563 103.76216797 272.12601563 103.51953125 271.234375 C102.11792005 266.30937654 100.47669684 261.63730574 98.4375 256.9375 C96.30744823 251.97807223 94.97215465 247.30266174 94 242 C93.34 242 92.68 242 92 242 C91.01 236.555 91.01 236.555 90 231 C89.34 231 88.68 231 88 231 C86.68373308 227.38026598 86 224.90432869 86 221 C85.34 221 84.68 221 84 221 C83.82984375 220.39414062 83.6596875 219.78828125 83.484375 219.1640625 C81.68259944 212.93451934 79.46383109 206.99336689 77 201 C74 193.51271186 74 193.51271186 74 190 C73.34 190 72.68 190 72 190 C71.84144531 189.40574219 71.68289062 188.81148437 71.51953125 188.19921875 C70.17784306 183.43288997 68.61594089 178.98119204 66.5 174.5 C64.46886889 170.18840731 62.97111107 165.94828081 61.69140625 161.36328125 C61.00625455 159.02137856 60.19364706 156.77458891 59.3125 154.5 C58 151 58 151 58 149 C57.34 149 56.68 149 56 149 C55.34 145.37 54.68 141.74 54 138 C53.34 138 52.68 138 52 138 C51.84144531 137.40574219 51.68289062 136.81148437 51.51953125 136.19921875 C50.17784306 131.43288997 48.61594089 126.98119204 46.5 122.5 C44.46886889 118.18840731 42.97111107 113.94828081 41.69140625 109.36328125 C41.00625455 107.02137856 40.19364706 104.77458891 39.3125 102.5 C38 99 38 99 38 97 C37.34 97 36.68 97 36 97 C34.80712589 93.12315913 34 90.08378077 34 86 C33.34 86 32.68 86 32 86 C31.81824219 85.443125 31.63648438 84.88625 31.44921875 84.3125 C29.02439856 76.95099462 26.28280338 69.73195609 23.5 62.5 C22.85998047 60.83324219 22.85998047 60.83324219 22.20703125 59.1328125 C21.48165741 57.25012699 20.75144527 55.36928009 20.01171875 53.4921875 C18.84999235 50.50803722 18 48.23360691 18 45 C17.34 45 16.68 45 16 45 C14.80712589 41.12315913 14 38.08378077 14 34 C13.34 34 12.68 34 12 34 C10.68373308 30.38026598 10 27.90432869 10 24 C9.34 24 8.68 24 8 24 C7.82984375 23.39414062 7.6596875 22.78828125 7.484375 22.1640625 C5.90555707 16.7053835 4.06858058 11.46553673 1.8671875 6.2265625 C1.063355 4.16266825 0.48300261 2.15872595 0 0 Z " fill="#FFFFFF" transform="translate(132,283)"/>
<path d="M0 0 C1.04777631 2.47334238 1.90161461 4.82027892 2.6875 7.375 C3.02491211 8.40367187 3.02491211 8.40367187 3.36914062 9.453125 C4.31470473 12.40765356 5 14.8803551 5 18 C5.66 18 6.32 18 7 18 C7.18175781 18.64066406 7.36351562 19.28132813 7.55078125 19.94140625 C8.73738903 24.02455405 9.916134 28.00330003 11.6875 31.875 C13 35 13 35 13 39 C13.66 39 14.32 39 15 39 C15.18175781 39.556875 15.36351562 40.11375 15.55078125 40.6875 C17.56591274 46.80523251 19.79246606 52.8192856 22.078125 58.83984375 C22.44421875 59.82082031 22.8103125 60.80179688 23.1875 61.8125 C23.53167969 62.72644531 23.87585938 63.64039063 24.23046875 64.58203125 C25 67 25 67 25 70 C25.66 70 26.32 70 27 70 C27.18175781 70.64066406 27.36351562 71.28132812 27.55078125 71.94140625 C28.73738903 76.02455405 29.916134 80.00330003 31.6875 83.875 C33 87 33 87 33 91 C33.66 91 34.32 91 35 91 C36.19287411 94.87684087 37 97.91621923 37 102 C37.66 102.33 38.32 102.66 39 103 C39.89453125 104.828125 39.89453125 104.828125 40.8125 107.25 C41.16054687 108.15621094 41.50859375 109.06242188 41.8671875 109.99609375 C42.24101562 110.98738281 42.61484375 111.97867188 43 113 C43.81201982 115.10435202 44.62453744 117.208512 45.4375 119.3125 C46.06785156 120.95798828 46.06785156 120.95798828 46.7109375 122.63671875 C47.56683246 124.86982651 48.42618117 127.10161374 49.2890625 129.33203125 C50.53413704 132.55165652 51.7699441 135.77460913 53 139 C53.38542969 140.00675781 53.77085937 141.01351562 54.16796875 142.05078125 C55.90611368 146.68792602 57.46379049 151.04006206 58 156 C58.66 156 59.32 156 60 156 C60.15855469 156.58265625 60.31710937 157.1653125 60.48046875 157.765625 C61.82824567 162.50145993 63.37146748 167.03551126 65.3125 171.5625 C68.32162433 178.59587494 70.7964936 185.78954024 73.30224609 193.01269531 C74.59441794 196.69298882 75.96457854 200.34471117 77.3359375 203.99609375 C78 206 78 206 78 208 C78.66 208 79.32 208 80 208 C80.20496094 208.68707031 80.40992188 209.37414062 80.62109375 210.08203125 C80.89050781 210.98308594 81.15992188 211.88414062 81.4375 212.8125 C81.70433594 213.70582031 81.97117187 214.59914063 82.24609375 215.51953125 C82.80387873 217.35473055 83.39344575 219.18033726 84 221 C82.68 221 81.36 221 80 221 C78.67834188 219.54939962 77.36161792 218.08796332 76.171875 216.52734375 C74.97521059 214.88971581 74.97521059 214.88971581 73.1875 213.25 C72 212 72 212 72 210 C71.34 210 70.68 210 70 210 C67 206.53846154 67 206.53846154 67 204 C66.4225 203.79375 65.845 203.5875 65.25 203.375 C63 202 63 202 61.1875 199.25 C59.32925114 196.48917312 58.06483587 195.08278415 55.5625 193.0625 C52.48038064 190.5574583 50.44767879 187.95780229 48.26171875 184.66796875 C46.91386592 182.88613235 45.49882053 181.63327135 43.75 180.25 C41 178 41 178 40 175 C39.154375 174.154375 38.30875 173.30875 37.4375 172.4375 C36.633125 171.633125 35.82875 170.82875 35 170 C35 169.34 35 168.68 35 168 C34.4225 167.79375 33.845 167.5875 33.25 167.375 C31 166 31 166 29.1875 163.25 C26.90685386 159.86161145 24.60081027 157.84263472 21.390625 155.39453125 C20 154 20 154 20 151 C19.01 150.67 18.02 150.34 17 150 C15.46484375 148.40625 15.46484375 148.40625 13.9375 146.5 C11.82278233 143.81893599 11.82278233 143.81893599 9 142 C8.71125 141.030625 8.4225 140.06125 8.125 139.0625 C7.3110709 135.89943043 7.3110709 135.89943043 4.875 134.625 C4.25625 134.41875 3.6375 134.2125 3 134 C3 133.34 3 132.68 3 132 C2.443125 131.814375 1.88625 131.62875 1.3125 131.4375 C-1.55411662 129.65554913 -2.77826747 127.58166931 -4.62890625 124.80859375 C-6.03851256 122.94919854 -7.47298264 121.67400285 -9.3125 120.25 C-10.199375 119.5075 -11.08625 118.765 -12 118 C-12 117.01 -12 116.02 -12 115 C-13.485 114.505 -13.485 114.505 -15 114 C-16.53515625 112.40625 -16.53515625 112.40625 -18.0625 110.5 C-20.17721767 107.81893599 -20.17721767 107.81893599 -23 106 C-23.28875 105.030625 -23.5775 104.06125 -23.875 103.0625 C-25.21787135 99.40690576 -25.70953499 99.59719652 -29 98 C-30.7109375 96.30078125 -30.7109375 96.30078125 -32.375 94.3125 C-32.97441406 93.60609375 -33.57382813 92.8996875 -34.19140625 92.171875 C-34.78824219 91.45515625 -35.38507813 90.7384375 -36 90 C-37.10148242 88.6852465 -38.20544278 87.37256282 -39.3125 86.0625 C-39.78300781 85.49660156 -40.25351563 84.93070313 -40.73828125 84.34765625 C-41.97950473 82.86554616 -41.97950473 82.86554616 -44 82 C-44 81.01 -44 80.02 -44 79 C-44.99 78.67 -45.98 78.34 -47 78 C-48.71875 76.29296875 -48.71875 76.29296875 -50.5 74.1875 C-51.0878125 73.50042969 -51.675625 72.81335938 -52.28125 72.10546875 C-57 66.325 -57 66.325 -57 64 C-57.56847656 63.77957031 -58.13695312 63.55914063 -58.72265625 63.33203125 C-61.70717397 61.58636994 -63.31369201 59.40759377 -65.4375 56.6875 C-68.43429454 52.86723844 -71.53926265 49.40446519 -75 46 C-76.01599531 44.84723609 -77.0184944 43.68226811 -78 42.5 C-79.80966556 40.35160217 -81.60710223 38.40735258 -83.625 36.4375 C-86.17478231 33.82061815 -87.99215648 31.04414986 -90 28 C-90.7425 27.2575 -91.485 26.515 -92.25 25.75 C-93.11625 24.88375 -93.11625 24.88375 -94 24 C-94 23.34 -94 22.68 -94 22 C-92.68 22 -91.36 22 -90 22 C-90 21.34 -90 20.68 -90 20 C-88.27192682 19.66104344 -86.54248026 19.32908475 -84.8125 19 C-83.84957031 18.814375 -82.88664062 18.62875 -81.89453125 18.4375 C-79.2065794 18.03122388 -76.71228981 17.92066428 -74 18 C-74 17.34 -74 16.68 -74 16 C-72.27192682 15.66104344 -70.54248026 15.32908475 -68.8125 15 C-67.84957031 14.814375 -66.88664062 14.62875 -65.89453125 14.4375 C-63.2065794 14.03122388 -60.71228981 13.92066428 -58 14 C-58 13.34 -58 12.68 -58 12 C-52.72 11.01 -47.44 10.02 -42 9 C-42 8.67 -42 8.34 -42 8 C-40.10507994 7.66151348 -38.20901534 7.32943089 -36.3125 7 C-34.72888672 6.7215625 -34.72888672 6.7215625 -33.11328125 6.4375 C-30.35095938 6.04931926 -27.78257957 5.91740024 -25 6 C-25 5.34 -25 4.68 -25 4 C-19.72 3.01 -14.44 2.02 -9 1 C-9 0.67 -9 0.34 -9 0 C-3.375 -1.125 -3.375 -1.125 0 0 Z " fill="#FFFFFF" transform="translate(207,490)"/>
</svg>
